# File created by Blade
# Date/Time:  Tue Jan 27 19:38:24 2015
#---------------------------------------------------------
:version 1.10
:name HOM
:units
  mass 1.0
  length 1.000000
  angle deg
:documentation
     Acclaim Skeleton File
:root
   axis xyz
   order TX TY TZ RX RY RZ
   position 0.000000 0.000000 0.000000
   orientation 0 0 0
:bonedata
   begin
      id 1
      name Spine_dum
      direction 0.000000 1.000000 0.000000
      length 6.116652
      axis 0.0 0.0 0.0 xyz
   end
   begin
      id 2
      name LeftUpLeg_dum
      direction 1.000000 0.000000 0.000000
      length 4.711765
      axis 0.0 0.0 0.0 xyz
   end
   begin
      id 3
      name RightUpLeg_dum
      direction -1.000000 0.000000 0.000000
      length 4.711765
      axis 0.0 0.0 0.0 xyz
   end
   begin
      id 4
      name Spine
      direction 0.000000 1.000000 0.000000
      length 0.000000
      axis 0.0 0.0 0.0 xyz
      dof rx ry rz
   end
   begin
      id 5
      name Spine_dum1
      direction 0.000000 1.000000 0.000000
      length 15.225563
      axis 0.0 0.0 0.0 xyz
   end
   begin
      id 6
      name Spine_dum2
      direction 0.000000 1.000000 0.000000
      length 8.977654
      axis 0.0 0.0 0.0 xyz
   end
   begin
      id 7
      name Spine_dum3
      direction 0.000000 1.000000 0.000000
      length 8.977654
      axis 0.0 0.0 0.0 xyz
   end
   begin
      id 8
      name Head
      direction 0.000000 1.000000 0.000000
      length 4.527550
      axis 0.0 0.0 0.0 xyz
      dof rx ry rz
   end
   begin
      id 9
      name LeftShoulder
      direction 1.000000 0.000000 0.000000
      length 7.110130
      axis 0.0 0.0 -90.0 xyz
      dof rx ry rz
   end
   begin
      id 10
      name LeftArm
      direction 1.000000 0.000000 0.000000
      length 10.398341
      axis 0.0 0.0 -90.0 xyz
      dof rx ry rz
   end
   begin
      id 11
      name LeftForeArm
      direction 1.000000 0.000000 0.000000
      length 8.888997
      axis 0.0 0.0 -90.0 xyz
      dof ry rz rx
   end
   begin
      id 12
      name LeftHand
      direction 0.000000 0.000000 0.000000
      length 0.000000
      axis 0.0 0.0 -90.0 xyz
      dof rx ry rz
   end
   begin
      id 13
      name LeftHand_dum1
      direction 0.000000 0.000000 0.000000
      length 0.000000
      axis 0.0 0.0 -90.0 xyz
   end
   begin
      id 14
      name LeftHand_dum2
      direction 1.000000 0.000000 0.000000
      length 3.937000
      axis 0.0 0.0 -90.0 xyz
   end
   begin
      id 15
      name LeftHandThumb1
      direction 0.000000 0.000000 1.000000
      length 3.937000
      axis 0.0 0.0 -90.0 xyz
      dof rx rz ry
   end
   begin
      id 16
      name RightShoulder
      direction -1.000000 0.000000 0.000000
      length 7.110130
      axis 0.0 0.0 90.0 xyz
      dof rx ry rz
   end
   begin
      id 17
      name RightArm
      direction -1.000000 0.000000 0.000000
      length 10.398341
      axis 0.0 0.0 90.0 xyz
      dof rx ry rz
   end
   begin
      id 18
      name RightForeArm
      direction -1.000000 0.000000 0.000000
      length 8.888997
      axis 0.0 0.0 90.0 xyz
      dof ry rz rx
   end
   begin
      id 19
      name RightHand
      direction 0.000000 0.000000 0.000000
      length 0.000000
      axis 0.0 0.0 90.0 xyz
      dof rx ry rz
   end
   begin
      id 20
      name RightHand_dum1
      direction 0.000000 0.000000 0.000000
      length 0.000000
      axis 0.0 0.0 90.0 xyz
   end
   begin
      id 21
      name RightHand_dum2
      direction -1.000000 0.000000 0.000000
      length 3.937000
      axis 0.0 0.0 90.0 xyz
   end
   begin
      id 22
      name RightHandThumb1
      direction 0.000000 0.000000 1.000000
      length 3.937000
      axis 0.0 0.0 90.0 xyz
      dof rx rz ry
   end
   begin
      id 23
      name LeftUpLeg
      direction 0.000000 -1.000000 0.000000
      length 15.510451
      axis 0.0 0.0 0.0 xyz
      dof rx ry rz
   end
   begin
      id 24
      name LeftLeg
      direction 0.000000 -1.000000 0.000000
      length 14.858061
      axis 0.0 0.0 0.0 xyz
      dof rx ry rz
   end
   begin
      id 25
      name LeftFoot
      direction 0.000000 -0.258819 0.965926
      length 5.128852
      axis 15.0 0.0 0.0 xyz
      dof rx ry rz
   end
   begin
      id 26
      name LeftToeBase
      direction 0.000000 0.000000 1.000000
      length 2.952750
      axis 0.0 0.0 0.0 xyz
      dof rx ry rz
   end
   begin
      id 27
      name RightUpLeg
      direction 0.000000 -1.000000 0.000000
      length 15.510451
      axis 0.0 0.0 0.0 xyz
      dof rx ry rz
   end
   begin
      id 28
      name RightLeg
      direction 0.000000 -1.000000 0.000000
      length 14.858061
      axis 0.0 0.0 0.0 xyz
      dof rx ry rz
   end
   begin
      id 29
      name RightFoot
      direction 0.000000 -0.258819 0.965926
      length 5.128852
      axis 15.0 0.0 0.0 xyz
      dof rx ry rz
   end
   begin
      id 30
      name RightToeBase
      direction 0.000000 0.000000 1.000000
      length 2.952750
      axis 0.0 0.0 0.0 xyz
      dof rx ry rz
   end
:hierarchy
   begin
      root Spine_dum LeftUpLeg_dum RightUpLeg_dum
      Spine_dum Spine
      LeftUpLeg_dum LeftUpLeg
      RightUpLeg_dum RightUpLeg
      Spine Spine_dum1 Spine_dum2 Spine_dum3
      Spine_dum1 Head
      Spine_dum2 LeftShoulder
      Spine_dum3 RightShoulder
      LeftShoulder LeftArm
      LeftArm LeftForeArm
      LeftForeArm LeftHand
      LeftHand LeftHand_dum1 LeftHand_dum2
      LeftHand_dum1 LeftHandThumb1
      RightShoulder RightArm
      RightArm RightForeArm
      RightForeArm RightHand
      RightHand RightHand_dum1 RightHand_dum2
      RightHand_dum1 RightHandThumb1
      LeftUpLeg LeftLeg
      LeftLeg LeftFoot
      LeftFoot LeftToeBase
      RightUpLeg RightLeg
      RightLeg RightFoot
      RightFoot RightToeBase
   end

# File created by Blade
# Date/Time:  Tue Jan 27 19:38:14 2015
# Frame Rate: 120.000 fps
#------------------------------------------------------
:FULLY-SPECIFIED
:DEGREES
866
root 4.655395 32.303288 1.851169 -6.372292 9.204260 0.957034
Spine 5.284733 27.089706 2.007871
Head 11.624240 -11.889361 4.263602
LeftShoulder -2.026458 -9.983025 25.543630
LeftArm -0.496890 47.856447 -101.274314
LeftForeArm 6.079906 -0.000000 12.152485
LeftHand 9.919707 -0.000000 -7.987879
LeftHandThumb1 -26.253704 0.000000 33.147579
RightShoulder 3.543397 7.708231 -26.394327
RightArm 48.467102 -45.139527 85.577907
RightForeArm -7.643551 -0.000000 97.181458
RightHand 27.156129 -0.000000 2.360147
RightHandThumb1 -24.326973 -0.000000 -32.862282
LeftUpLeg 7.745348 -7.084497 -4.375888
LeftLeg 5.908120 -0.000000 -0.000000
LeftFoot -15.647289 9.412570 -19.984160
LeftToeBase 16.782739 -0.000000 -0.000000
RightUpLeg 10.438440 -13.733768 0.980976
RightLeg 2.741473 -0.000000 -0.000000
RightFoot -14.339595 -15.297078 13.452993
RightToeBase 9.193226 -0.000000 -0.000000
867
root 4.652383 32.303722 1.854682 -6.368393 9.169082 0.956454
Spine 5.254585 27.158446 1.996975
Head 11.661033 -11.962838 4.244384
LeftShoulder -2.071709 -9.885161 25.564117
LeftArm -0.460318 47.791319 -101.249379
LeftForeArm 6.153420 0.000000 12.212634
LeftHand 9.861608 -0.000000 -8.039335
LeftHandThumb1 -26.253704 0.000000 33.147579
RightShoulder 3.561461 7.804934 -26.401437
RightArm 49.082082 -45.472733 84.921760
RightForeArm -7.679017 -0.000000 96.733926
RightHand 27.053799 -0.000000 2.697194
RightHandThumb1 -24.326973 -0.000000 -32.862282
LeftUpLeg 7.749286 -7.093122 -4.369450
LeftLeg 5.905689 -0.000000 -0.000000
LeftFoot -15.730069 9.409437 -20.180856
LeftToeBase 17.085780 -0.000000 -0.000000
RightUpLeg 10.427885 -13.712354 0.990563
RightLeg 2.756721 -0.000000 -0.000000
RightFoot -14.340204 -15.289297 13.435971
RightToeBase 9.248332 -0.000000 -0.000000
868
root 4.648833 32.303902 1.858981 -6.365805 9.133804 0.957558
Spine 5.220750 27.221229 1.972633
Head 11.706480 -12.029495 4.245750
LeftShoulder -2.118267 -9.825543 25.610143
LeftArm -0.494868 47.682736 -101.280436
LeftForeArm 6.198247 -0.000000 12.272146
LeftHand 9.882639 -0.000000 -7.972304
LeftHandThumb1 -26.253704 0.000000 33.147579
RightShoulder 3.546579 7.840841 -26.422149
RightArm 49.983944 -45.903790 84.041770
RightForeArm -8.177286 -0.000000 96.137144
RightHand 27.067487 0.000000 2.196159
RightHandThumb1 -24.326973 -0.000000 -32.862282
LeftUpLeg 7.752501 -7.085980 -4.365133
LeftLeg 5.915147 -0.000000 -0.000000
LeftFoot -15.753721 9.424053 -20.212873
LeftToeBase 17.131147 -0.000000 -0.000000
RightUpLeg 10.426938 -13.702950 0.999235
RightLeg 2.744576 -0.000000 -0.000000
RightFoot -14.247111 -15.317561 13.295953
RightToeBase 8.934875 -0.000000 -0.000000
869
root 4.645955 32.304136 1.863906 -6.362417 9.085910 0.952743
Spine 5.186435 27.287091 1.968999
Head 11.756046 -12.069872 4.221920
LeftShoulder -2.174527 -9.747043 25.641494
LeftArm -0.544062 47.506031 -101.298341
LeftForeArm 6.210446 -0.000000 12.360321
LeftHand 9.987418 -0.000000 -7.664863
LeftHandThumb1 -26.253704 0.000000 33.147579
RightShoulder 3.540331 7.913780 -26.470083
RightArm 50.861499 -46.307411 83.180422
RightForeArm -8.382773 -0.000000 95.508013
RightHand 27.026299 -0.000000 2.191720
RightHandThumb1 -24.326973 -0.000000 -32.862282
LeftUpLeg 7.755177 -7.065025 -4.358352
LeftLeg 5.935093 -0.000000 -0.000000
LeftFoot -15.712224 9.475217 -20.050582
LeftToeBase 16.847156 -0.000000 -0.000000
RightUpLeg 10.417119 -13.674564 1.012827
RightLeg 2.760598 -0.000000 -0.000000
RightFoot -14.241218 -15.304351 13.278919
RightToeBase 8.959047 -0.000000 -0.000000
870
root 4.642357 32.304444 1.868715 -6.364070 9.030734 0.950972
Spine 5.157771 27.351791 1.964843
Head 11.818051 -12.103328 4.192140
LeftShoulder -2.250822 -9.613492 25.695511
LeftArm -0.528106 47.354061 -101.275085
LeftForeArm 6.207110 -0.000000 12.454343
LeftHand 10.037936 -0.000000 -7.547580
LeftHandThumb1 -26.253704 0.000000 33.147579
RightShoulder 3.560697 8.006045 -26.512514
RightArm 51.766422 -46.718211 82.290924
RightForeArm -8.544734 -0.000000 94.852516
RightHand 26.757808 0.000000 2.277161
RightHandThumb1 -24.326973 -0.000000 -32.862282
LeftUpLeg 7.763496 -7.037267 -4.349060
LeftLeg 5.947523 -0.000000 -0.000000
LeftFoot -15.728756 9.485591 -20.065328
LeftToeBase 16.820162 -0.000000 -0.000000
RightUpLeg 10.415800 -13.617645 1.025580
RightLeg 2.777927 -0.000000 -0.000000
RightFoot -14.319260 -15.257171 13.404438
RightToeBase 9.163100 -0.000000 -0.000000
871
root 4.637742 32.304624 1.874893 -6.363221 8.962452 0.950577
Spine 5.121644 27.418333 1.960152
Head 11.888454 -12.135711 4.142970
LeftShoulder -2.288777 -9.798594 25.777548
LeftArm -1.043578 47.009842 -101.617852
LeftForeArm 6.311859 -0.000000 12.625405
LeftHand 10.016855 -0.000000 -7.171053
LeftHandThumb1 -26.253704 0.000000 33.147579
RightShoulder 3.590410 8.074249 -26.552304
RightArm 52.832387 -47.143972 81.260874
RightForeArm -8.434007 0.000000 94.089095
RightHand 26.406467 -0.000000 2.347666
RightHandThumb1 -24.326973 -0.000000 -32.862282
LeftUpLeg 7.786015 -7.012241 -4.339794
LeftLeg 5.934882 -0.000000 -0.000000
LeftFoot -15.745911 9.514728 -20.083206
LeftToeBase 16.800735 -0.000000 -0.000000
RightUpLeg 10.411393 -13.592391 1.036409
RightLeg 2.778818 -0.000000 -0.000000
RightFoot -14.228537 -15.263785 13.247396
RightToeBase 8.949715 -0.000000 -0.000000
872
root 4.633440 32.305085 1.881329 -6.374967 8.883429 0.949042
Spine 5.104301 27.534016 1.962559
Head 11.948089 -12.203352 4.126125
LeftShoulder -2.403449 -9.377883 25.837515
LeftArm -0.612460 46.872477 -101.272758
LeftForeArm 6.277924 -0.000000 12.754080
LeftHand 9.961360 -0.000000 -7.729226
LeftHandThumb1 -26.253704 0.000000 33.147579
RightShoulder 3.570521 8.137805 -26.585193
RightArm 53.947266 -47.597233 80.153499
RightForeArm -8.280296 -0.000000 93.208789
RightHand 26.346998 0.000000 3.056427
RightHandThumb1 -24.326973 -0.000000 -32.862282
LeftUpLeg 7.815700 -6.945620 -4.323211
LeftLeg 5.925811 -0.000000 -0.000000
LeftFoot -15.825663 9.495729 -20.245925
LeftToeBase 17.083277 -0.000000 -0.000000
RightUpLeg 10.419641 -13.520009 1.051174
RightLeg 2.795425 -0.000000 -0.000000
RightFoot -14.315168 -15.216749 13.375837
RightToeBase 9.249714 -0.000000 -0.000000
873
root 4.629366 32.305820 1.887435 -6.370720 8.800877 0.946497
Spine 5.067009 27.638110 1.962957
Head 12.013957 -12.235120 4.089594
LeftShoulder -2.516686 -9.129305 25.879057
LeftArm -0.479203 46.653676 -101.102215
LeftForeArm 6.251453 -0.000000 12.910854
LeftHand 10.129252 0.000000 -7.410718
LeftHandThumb1 -26.253704 0.000000 33.147579
RightShoulder 3.580969 8.325227 -26.636550
RightArm 55.010583 -48.062035 79.058458
RightForeArm -7.778972 -0.000000 92.310908
RightHand 26.359876 -0.000000 3.309962
RightHandThumb1 -24.326973 -0.000000 -32.862282
LeftUpLeg 7.821025 -6.888990 -4.310631
LeftLeg 5.946399 -0.000000 -0.000000
LeftFoot -15.783998 9.542585 -20.095290
LeftToeBase 16.831145 -0.000000 -0.000000
RightUpLeg 10.410465 -13.506105 1.059033
RightLeg 2.807764 -0.000000 -0.000000
RightFoot -14.295445 -15.154266 13.362915
RightToeBase 9.214703 -0.000000 -0.000000
